<svg xmlns="http://www.w3.org/2000/svg" viewBox="0 0 24 24" fill="#00A8E1">
  <path d="M11.395 2.292c-2.538 1.302-6.924 5.65-10.052 10.34l.033.069c.531-1.08 2.906-3.55 4.86-4.622 2.137-1.173 3.882-1.278 4.479-1.483.62-.213.478-.687.68-.856.327-.274 1.216-.726 1.638-1.41.425-.69.246-1.338.362-1.908s.333-1.086.412-1.477c.058-.288.232-.658.42-.975-.67.204-1.493.652-2.432 1.322zM21.95 9.843c-.617-1.324-1.363-2.085-2.134-2.591-.772-.506-1.63-.737-2.338-.782-1.415-.088-2.826.62-3.998 1.512-1.172.892-2.104 2.162-2.852 3.48-.746 1.32-1.264 2.74-1.67 4.08-.406 1.34-.657 2.618-.832 3.61-.088.497-.139.93-.17 1.277.923-1.56 2.17-3.39 3.706-5.088 1.337-1.48 3.341-3.264 5.28-3.992 1.36-.51 2.97-.653 4.008-.504z"/>
</svg>
